<svg width="609" height="58" viewBox="0 0 609 58" fill="none" xmlns="http://www.w3.org/2000/svg">
<g filter="url(#filter0_b_29_13)">
<g clip-path="url(#clip0_29_13)">
<rect width="609" height="58" fill="white" fill-opacity="0.02"/>
<g style="mix-blend-mode:screen" filter="url(#filter1_f_29_13)">
<path d="M398.549 20.9198C518.566 20.6283 584.315 35.6757 602.187 43.2359C633.017 59.7639 675.194 86.6143 597.265 61.7918C499.853 30.7636 408.258 42.5136 198.726 42.0188C31.0998 41.623 75.2179 22.4324 118.23 12.8866L213.177 5.61812C224.961 10.8402 278.533 21.2114 398.549 20.9198Z" fill="url(#paint0_radial_29_13)"/>
</g>
<path d="M94.6 19.16H82.28V39H79.56V16.6H97.32V39H94.6V19.16ZM104.035 27.8C104.035 29.4853 104.398 30.9893 105.123 32.312C105.87 33.6347 106.883 34.68 108.163 35.448C109.443 36.216 110.894 36.6 112.515 36.6C114.158 36.6 115.608 36.216 116.867 35.448C118.147 34.68 119.15 33.6347 119.875 32.312C120.622 30.9893 120.995 29.4853 120.995 27.8C120.995 26.1147 120.622 24.6107 119.875 23.288C119.15 21.9653 118.147 20.92 116.867 20.152C115.608 19.384 114.158 19 112.515 19C110.894 19 109.443 19.384 108.163 20.152C106.883 20.92 105.87 21.9653 105.123 23.288C104.398 24.6107 104.035 26.1147 104.035 27.8ZM101.155 27.8C101.155 26.1573 101.432 24.6427 101.987 23.256C102.563 21.848 103.363 20.632 104.387 19.608C105.411 18.5627 106.616 17.752 108.003 17.176C109.39 16.5787 110.894 16.28 112.515 16.28C114.158 16.28 115.662 16.5787 117.027 17.176C118.414 17.752 119.619 18.5627 120.643 19.608C121.667 20.632 122.456 21.848 123.011 23.256C123.587 24.6427 123.875 26.1573 123.875 27.8C123.875 29.4213 123.587 30.936 123.011 32.344C122.456 33.752 121.667 34.9787 120.643 36.024C119.619 37.048 118.414 37.8587 117.027 38.456C115.662 39.032 114.158 39.32 112.515 39.32C110.894 39.32 109.39 39.032 108.003 38.456C106.616 37.8587 105.411 37.048 104.387 36.024C103.363 34.9787 102.563 33.752 101.987 32.344C101.432 30.936 101.155 29.4213 101.155 27.8ZM147.236 19.64L127.716 40.12L127.876 35.96L147.396 15.48L147.236 19.64ZM130.436 16.6V36.6L127.716 40.12V16.6H130.436ZM147.396 15.48V39H144.676V19L147.396 15.48ZM154.129 27.8C154.129 29.528 154.513 31.0533 155.281 32.376C156.07 33.6987 157.094 34.7333 158.353 35.48C159.611 36.2267 160.977 36.6 162.449 36.6C163.515 36.6 164.486 36.4613 165.361 36.184C166.257 35.9067 167.067 35.5227 167.793 35.032C168.518 34.52 169.137 33.9333 169.649 33.272V36.856C168.71 37.688 167.686 38.3067 166.577 38.712C165.467 39.1173 164.091 39.32 162.449 39.32C160.891 39.32 159.43 39.0427 158.065 38.488C156.721 37.912 155.537 37.112 154.513 36.088C153.489 35.0427 152.689 33.816 152.113 32.408C151.537 31 151.249 29.464 151.249 27.8C151.249 26.136 151.537 24.6 152.113 23.192C152.689 21.784 153.489 20.568 154.513 19.544C155.537 18.4987 156.721 17.6987 158.065 17.144C159.43 16.568 160.891 16.28 162.449 16.28C164.091 16.28 165.467 16.4827 166.577 16.888C167.686 17.2933 168.71 17.912 169.649 18.744V22.328C169.137 21.6667 168.518 21.0907 167.793 20.6C167.067 20.088 166.257 19.6933 165.361 19.416C164.486 19.1387 163.515 19 162.449 19C160.977 19 159.611 19.3733 158.353 20.12C157.094 20.8667 156.07 21.9013 155.281 23.224C154.513 24.5253 154.129 26.0507 154.129 27.8ZM174.435 16.6H177.155V39H174.435V16.6ZM185.955 16.6H189.315L179.619 27.096L189.795 39H186.435L176.323 27.16L185.955 16.6ZM221.643 19.64L202.123 40.12L202.283 35.96L221.803 15.48L221.643 19.64ZM204.843 16.6V36.6L202.123 40.12V16.6H204.843ZM221.803 15.48V39H219.083V19L221.803 15.48ZM238.129 27.8C238.129 29.528 238.513 31.0533 239.281 32.376C240.07 33.6987 241.094 34.7333 242.353 35.48C243.611 36.2267 244.977 36.6 246.449 36.6C247.515 36.6 248.486 36.4613 249.361 36.184C250.257 35.9067 251.067 35.5227 251.793 35.032C252.518 34.52 253.137 33.9333 253.649 33.272V36.856C252.71 37.688 251.686 38.3067 250.577 38.712C249.467 39.1173 248.091 39.32 246.449 39.32C244.891 39.32 243.43 39.0427 242.065 38.488C240.721 37.912 239.537 37.112 238.513 36.088C237.489 35.0427 236.689 33.816 236.113 32.408C235.537 31 235.249 29.464 235.249 27.8C235.249 26.136 235.537 24.6 236.113 23.192C236.689 21.784 237.489 20.568 238.513 19.544C239.537 18.4987 240.721 17.6987 242.065 17.144C243.43 16.568 244.891 16.28 246.449 16.28C248.091 16.28 249.467 16.4827 250.577 16.888C251.686 17.2933 252.71 17.912 253.649 18.744V22.328C253.137 21.6667 252.518 21.0907 251.793 20.6C251.067 20.088 250.257 19.6933 249.361 19.416C248.486 19.1387 247.515 19 246.449 19C244.977 19 243.611 19.3733 242.353 20.12C241.094 20.8667 240.07 21.9013 239.281 23.224C238.513 24.5253 238.129 26.0507 238.129 27.8ZM259.939 28.12V25.56H264.515C265.966 25.56 267.256 25.8373 268.387 26.392C269.539 26.9253 270.446 27.6933 271.107 28.696C271.79 29.6987 272.131 30.8933 272.131 32.28C272.131 33.6453 271.79 34.84 271.107 35.864C270.446 36.8667 269.539 37.6453 268.387 38.2C267.256 38.7333 265.966 39 264.515 39H259.939V36.44H264.515C265.475 36.44 266.318 36.2907 267.043 35.992C267.79 35.672 268.366 35.2027 268.771 34.584C269.198 33.9653 269.411 33.1973 269.411 32.28C269.411 31.3627 269.198 30.5947 268.771 29.976C268.366 29.3573 267.79 28.8987 267.043 28.6C266.318 28.28 265.475 28.12 264.515 28.12H259.939ZM258.435 16.6H270.435V19.16H261.155V39H258.435V16.6ZM277.566 27.8C277.566 29.4853 277.929 30.9893 278.654 32.312C279.401 33.6347 280.414 34.68 281.694 35.448C282.974 36.216 284.425 36.6 286.046 36.6C287.689 36.6 289.14 36.216 290.398 35.448C291.678 34.68 292.681 33.6347 293.406 32.312C294.153 30.9893 294.526 29.4853 294.526 27.8C294.526 26.1147 294.153 24.6107 293.406 23.288C292.681 21.9653 291.678 20.92 290.398 20.152C289.14 19.384 287.689 19 286.046 19C284.425 19 282.974 19.384 281.694 20.152C280.414 20.92 279.401 21.9653 278.654 23.288C277.929 24.6107 277.566 26.1147 277.566 27.8ZM274.686 27.8C274.686 26.1573 274.964 24.6427 275.518 23.256C276.094 21.848 276.894 20.632 277.918 19.608C278.942 18.5627 280.148 17.752 281.534 17.176C282.921 16.5787 284.425 16.28 286.046 16.28C287.689 16.28 289.193 16.5787 290.558 17.176C291.945 17.752 293.15 18.5627 294.174 19.608C295.198 20.632 295.988 21.848 296.542 23.256C297.118 24.6427 297.406 26.1573 297.406 27.8C297.406 29.4213 297.118 30.936 296.542 32.344C295.988 33.752 295.198 34.9787 294.174 36.024C293.15 37.048 291.945 37.8587 290.558 38.456C289.193 39.032 287.689 39.32 286.046 39.32C284.425 39.32 282.921 39.032 281.534 38.456C280.148 37.8587 278.942 37.048 277.918 36.024C276.894 34.9787 276.094 33.752 275.518 32.344C274.964 30.936 274.686 29.4213 274.686 27.8ZM301.248 16.6H303.968V39H301.248V16.6ZM302.752 19.16V16.6H307.328C308.778 16.6 310.069 16.8773 311.2 17.432C312.352 17.9653 313.258 18.7333 313.92 19.736C314.602 20.7387 314.944 21.9333 314.944 23.32C314.944 24.6853 314.602 25.88 313.92 26.904C313.258 27.9067 312.352 28.6853 311.2 29.24C310.069 29.7733 308.778 30.04 307.328 30.04H302.752V27.48H307.328C308.778 27.48 309.952 27.128 310.848 26.424C311.765 25.72 312.224 24.6853 312.224 23.32C312.224 21.9333 311.765 20.8987 310.848 20.216C309.952 19.512 308.778 19.16 307.328 19.16H302.752ZM347.893 19.64L328.373 40.12L328.533 35.96L348.053 15.48L347.893 19.64ZM331.093 16.6V36.6L328.373 40.12V16.6H331.093ZM348.053 15.48V39H345.333V19L348.053 15.48ZM354.689 28.12V25.56H370.049V28.12H354.689ZM368.225 16.6H370.945V39H368.225V16.6ZM353.185 16.6H355.905V39H353.185V16.6ZM384.668 16.6H387.388V39H384.668V16.6ZM394.556 27.8C394.556 26.4773 394.236 25.3787 393.596 24.504C392.956 23.6293 392.071 22.9787 390.94 22.552C389.809 22.104 388.508 21.88 387.036 21.88H385.02C383.548 21.88 382.247 22.104 381.116 22.552C379.985 22.9787 379.1 23.6293 378.46 24.504C377.82 25.3787 377.5 26.4773 377.5 27.8C377.5 29.1013 377.82 30.2 378.46 31.096C379.1 31.9707 379.985 32.632 381.116 33.08C382.247 33.5067 383.548 33.72 385.02 33.72H387.036C388.508 33.72 389.809 33.5067 390.94 33.08C392.071 32.632 392.956 31.9707 393.596 31.096C394.236 30.2 394.556 29.1013 394.556 27.8ZM397.276 27.8C397.276 29.592 396.828 31.1387 395.932 32.44C395.057 33.72 393.841 34.712 392.284 35.416C390.748 36.0987 388.999 36.44 387.036 36.44H385.02C383.057 36.44 381.297 36.0987 379.74 35.416C378.204 34.712 376.988 33.72 376.092 32.44C375.217 31.1387 374.78 29.592 374.78 27.8C374.78 25.9867 375.217 24.44 376.092 23.16C376.988 21.88 378.204 20.8987 379.74 20.216C381.297 19.512 383.057 19.16 385.02 19.16H387.036C388.999 19.16 390.748 19.512 392.284 20.216C393.841 20.8987 395.057 21.88 395.932 23.16C396.828 24.44 397.276 25.9867 397.276 27.8ZM402.723 27.8C402.723 29.4853 403.085 30.9893 403.811 32.312C404.557 33.6347 405.571 34.68 406.851 35.448C408.131 36.216 409.581 36.6 411.203 36.6C412.845 36.6 414.296 36.216 415.555 35.448C416.835 34.68 417.837 33.6347 418.562 32.312C419.309 30.9893 419.683 29.4853 419.683 27.8C419.683 26.1147 419.309 24.6107 418.562 23.288C417.837 21.9653 416.835 20.92 415.555 20.152C414.296 19.384 412.845 19 411.203 19C409.581 19 408.131 19.384 406.851 20.152C405.571 20.92 404.557 21.9653 403.811 23.288C403.085 24.6107 402.723 26.1147 402.723 27.8ZM399.843 27.8C399.843 26.1573 400.12 24.6427 400.674 23.256C401.251 21.848 402.051 20.632 403.075 19.608C404.099 18.5627 405.304 17.752 406.691 17.176C408.077 16.5787 409.581 16.28 411.203 16.28C412.845 16.28 414.349 16.5787 415.715 17.176C417.101 17.752 418.307 18.5627 419.331 19.608C420.355 20.632 421.144 21.848 421.699 23.256C422.275 24.6427 422.563 26.1573 422.563 27.8C422.563 29.4213 422.275 30.936 421.699 32.344C421.144 33.752 420.355 34.9787 419.331 36.024C418.307 37.048 417.101 37.8587 415.715 38.456C414.349 39.032 412.845 39.32 411.203 39.32C409.581 39.32 408.077 39.032 406.691 38.456C405.304 37.8587 404.099 37.048 403.075 36.024C402.051 34.9787 401.251 33.752 400.674 32.344C400.12 30.936 399.843 29.4213 399.843 27.8ZM426.404 16.6H429.124V39H426.404V16.6ZM427.908 19.16V16.6H432.484C433.934 16.6 435.225 16.8773 436.356 17.432C437.508 17.9653 438.414 18.7333 439.076 19.736C439.758 20.7387 440.1 21.9333 440.1 23.32C440.1 24.6853 439.758 25.88 439.076 26.904C438.414 27.9067 437.508 28.6853 436.356 29.24C435.225 29.7733 433.934 30.04 432.484 30.04H427.908V27.48H432.484C433.934 27.48 435.108 27.128 436.004 26.424C436.921 25.72 437.38 24.6853 437.38 23.32C437.38 21.9333 436.921 20.8987 436.004 20.216C435.108 19.512 433.934 19.16 432.484 19.16H427.908ZM447.039 23.864L445.375 39H442.655L445.375 15.48L454.335 31.704L463.295 15.48L466.015 39H463.295L461.631 23.864L454.335 36.92L447.039 23.864ZM472.954 32.28L473.914 29.72H483.834L484.794 32.28H472.954ZM478.81 21.656L475.034 30.552L474.778 31.128L471.45 39H468.41L478.81 15.48L489.21 39H486.17L482.906 31.32L482.65 30.68L478.81 21.656ZM494.655 36.44H506.975V16.6H509.695V36.44H512.415V42.52H510.015V39H491.935V16.6H494.655V36.44ZM535.768 19.64L516.248 40.12L516.408 35.96L535.928 15.48L535.768 19.64ZM518.968 16.6V36.6L516.248 40.12V16.6H518.968ZM535.928 15.48V39H533.208V19L535.928 15.48ZM560.58 19.64L541.06 40.12L541.22 35.96L560.74 15.48L560.58 19.64ZM543.78 16.6V36.6L541.06 40.12V16.6H543.78ZM560.74 15.48V39H558.02V19L560.74 15.48Z" fill="white"/>
</g>
<rect x="0.5" y="0.5" width="608" height="57" stroke="url(#paint1_linear_29_13)"/>
</g>
<defs>
<filter id="filter0_b_29_13" x="-17" y="-17" width="643" height="92" filterUnits="userSpaceOnUse" color-interpolation-filters="sRGB">
<feFlood flood-opacity="0" result="BackgroundImageFix"/>
<feGaussianBlur in="BackgroundImageFix" stdDeviation="8.5"/>
<feComposite in2="SourceAlpha" operator="in" result="effect1_backgroundBlur_29_13"/>
<feBlend mode="normal" in="SourceGraphic" in2="effect1_backgroundBlur_29_13" result="shape"/>
</filter>
<filter id="filter1_f_29_13" x="29.8809" y="-43.3818" width="660.754" height="164.244" filterUnits="userSpaceOnUse" color-interpolation-filters="sRGB">
<feFlood flood-opacity="0" result="BackgroundImageFix"/>
<feBlend mode="normal" in="SourceGraphic" in2="BackgroundImageFix" result="shape"/>
<feGaussianBlur stdDeviation="24.5" result="effect1_foregroundBlur_29_13"/>
</filter>
<radialGradient id="paint0_radial_29_13" cx="0" cy="0" r="1" gradientUnits="userSpaceOnUse" gradientTransform="translate(268.363 28.7127) rotate(-2.27737) scale(307.527 100.397)">
<stop stop-color="#F1FCFF"/>
<stop offset="1" stop-color="#C9AD3E" stop-opacity="0"/>
<stop offset="1" stop-color="white"/>
</radialGradient>
<linearGradient id="paint1_linear_29_13" x1="162.69" y1="-1.16" x2="164.043" y2="61.0538" gradientUnits="userSpaceOnUse">
<stop stop-color="white" stop-opacity="0.27"/>
<stop offset="1" stop-color="white" stop-opacity="0"/>
</linearGradient>
<clipPath id="clip0_29_13">
<rect width="609" height="58" fill="white"/>
</clipPath>
</defs>
</svg>
