<svg width="142" height="177" viewBox="0 0 142 177" fill="none" xmlns="http://www.w3.org/2000/svg">
<path d="M57.4505 127.63C58.7718 125.023 60.1227 122.465 61.2678 119.776C62.3163 117.313 63.1149 114.754 63.3595 112.035C63.8094 107.012 65.3872 102.523 68.0616 98.4912C71.9326 92.6561 76.3259 87.4145 81.676 83.2808C84.4354 81.1486 87.4209 79.6024 90.7507 78.8887C97.6258 77.4163 105.329 84.0447 104.778 93.2325C104.551 97.0193 103.618 100.574 102.367 104.05C101.219 107.237 99.7517 110.25 98.3366 113.289C97.1034 115.936 95.4398 118.263 93.7775 120.571C90.2337 125.49 86.3988 130.109 82.2247 134.353C79.6737 136.947 77.0252 139.413 73.975 141.253C73.0796 141.793 72.1445 142.231 71.1491 142.488C70.7791 142.583 70.4991 142.548 70.1996 142.201C66.0227 137.373 61.845 132.547 57.5556 127.847C57.5218 127.81 57.5061 127.749 57.4505 127.63Z" fill="#818181" fill-opacity="0.34"/>
<path d="M61.6058 71.8827C59.6404 71.2069 57.815 70.5655 55.9809 69.9504C52.1397 68.6615 48.2974 67.3678 44.4441 66.1249C43.7977 65.9168 43.4995 65.5709 43.3637 64.8412C42.8445 62.0749 43.0865 59.3233 43.4532 56.5778C44.3255 50.0629 46.0354 43.801 48.0089 37.6249C49.2455 33.7496 50.5976 29.9244 52.3454 26.2982C53.6462 23.5998 55.2502 21.1204 56.8368 18.6371C58.9425 15.341 61.2626 12.2539 64.1654 9.79724C66.9217 7.46627 69.9528 5.86067 73.4643 6.4474C79.3711 7.43454 83.3635 11.4337 84.451 18.5342C85.2243 23.5847 84.6972 28.5553 83.601 33.4602C82.1775 39.8253 80.3436 46.0196 77.1391 51.5787C75.6458 54.1711 73.7281 56.3203 71.4709 58.0475C68.5206 60.3055 66.2811 63.2906 64.3898 66.6413C63.4359 68.3322 62.559 70.079 61.6045 71.8818L61.6058 71.8827Z" fill="#818181" fill-opacity="0.34"/>
<path d="M65.2229 149.386C63.8499 151.59 62.3504 153.701 60.6832 155.652C58.1366 158.63 55.3278 161.215 51.9009 162.81C49.3108 164.015 46.6343 164.528 43.8948 163.58C40.1312 162.276 37.7827 158.607 37.659 153.963C37.5649 150.4 38.6071 147.214 40.3452 144.314C43.3068 139.371 47.4874 136.084 52.1168 133.426C52.4183 133.252 52.6115 133.277 52.827 133.571C56.7554 138.915 61.0261 143.915 65.0953 149.117C65.1437 149.18 65.1666 149.268 65.2221 149.388L65.2229 149.386Z" fill="#818181" fill-opacity="0.34"/>
<path d="M40.9008 74.3122C47.1495 75.9216 53.2544 77.8932 59.4967 79.3236C59.6891 85.1594 59.1561 90.822 56.8767 96.1134C55.5359 99.2261 53.6693 101.889 50.9366 103.592C45.1223 107.214 39.0149 104.247 37.2164 96.9834C36.4799 94.0102 36.4563 90.9989 36.8498 87.9746C37.4751 83.1808 38.9515 78.7051 40.9008 74.3122Z" fill="#818181" fill-opacity="0.34"/>
</svg>
