<svg width="110" height="128" viewBox="0 0 110 128" fill="none" xmlns="http://www.w3.org/2000/svg">
<path d="M49.2453 66.9977C37.3718 66.7172 22.9494 65.3671 8.89451 60.8784C6.92091 60.2472 4.99526 59.4714 3.19346 58.3711C0.137181 56.5038 0.117205 55.009 3.14551 53.0102C4.85543 51.8793 6.72116 51.099 8.59487 50.3889C15.2388 47.864 22.0824 46.1589 28.9101 44.3792C29.5054 44.2258 30.0527 44.2784 30.648 44.5239C38.1069 47.5835 45.9054 48.1402 53.7478 47.9517C60.5116 47.7895 67.2514 47.1846 73.6596 44.4231C74.0551 44.2521 74.5825 44.2916 75.0179 44.3968C82.8963 46.3474 90.7987 48.2191 98.3215 51.5593C99.4801 52.0721 100.623 52.6946 101.669 53.4441C103.719 54.917 103.707 56.1794 101.681 57.7443C100.319 58.7919 98.789 59.4933 97.2189 60.0938C89.2246 63.149 80.9067 64.543 72.5569 65.6564C65.7093 66.5681 58.8297 67.0634 49.2453 67.0065V66.9977Z" fill="#5E5E5E" fill-opacity="0.49"/>
<path d="M71.6623 34.4991C57.943 38.6195 44.4634 37.2431 30.7881 34.5298C31.0757 30.3129 31.8268 26.3459 32.534 22.3789C33.5567 16.6761 34.6114 10.9688 36.4292 5.48519C36.8127 4.32796 37.2242 3.16635 37.7556 2.08365C38.8982 -0.248334 40.2965 -0.577091 42.3021 0.948341C43.6804 2.00036 44.6752 3.47758 45.7898 4.8189C48.8421 8.50975 51.4189 8.75084 54.9187 5.60354C56.4528 4.22276 57.8431 2.64034 59.4052 1.29901C61.8223 -0.774345 63.2725 -0.39737 64.507 2.65788C66.7283 8.14154 67.775 14.0109 68.9656 19.819C69.9364 24.5618 70.7234 29.3529 71.6623 34.4991Z" fill="#5E5E5E" fill-opacity="0.49"/>
<path d="M51.5272 127.274C50.892 122.207 51.3515 117.464 52.9136 112.708C56.4612 101.925 62.7655 93.3729 70.3044 85.7413C71.423 84.606 72.4937 83.3173 73.7961 82.5107C78.1029 79.8368 78.6742 75.2869 79.0697 70.5966C79.1256 69.9566 79.0777 69.3079 79.0777 68.532C82.5055 68.006 85.8374 67.4887 89.1694 66.9847C89.5729 66.9233 89.9324 67.0767 90.28 67.3441C96.6283 72.2097 102.989 77.0665 109.74 82.2258C99.0773 84.4394 88.5741 85.68 78.6102 91.0935C82.7852 93.2896 86.5086 95.2534 90.6636 97.4407C73.6203 101.557 60.1447 110.573 51.5193 127.27L51.5272 127.274Z" fill="#5E5E5E" fill-opacity="0.49"/>
<path d="M49.8932 115.421C39.2382 109.635 29.0426 103.424 17.6964 99.2948C21.1123 96.0467 24.3763 92.9432 27.912 89.5811C18.5354 86.5741 9.54635 83.4049 0.0259522 82.6334C-0.137848 81.8838 0.513358 81.6997 0.868925 81.3622C5.53923 76.9481 10.2455 72.5734 14.9038 68.1418C15.611 67.4711 16.2422 67.1467 17.213 67.3265C19.5621 67.7648 21.9353 68.0848 24.3044 68.3916C25.2632 68.5144 25.7826 68.9965 26.1741 69.9828C31.7353 83.9879 40.0012 95.696 51.0518 105.011C51.7909 105.633 52.3262 106.19 52.0106 107.338C51.2835 109.977 50.6203 112.638 49.8972 115.421H49.8932Z" fill="#5E5E5E" fill-opacity="0.49"/>
<path d="M30.5414 69.1105C44.9279 70.9866 59.0906 71.3636 73.4411 69.0886C73.8966 71.951 73.1495 74.6205 71.072 76.7289C66.6414 81.2263 59.2824 80.3321 55.8146 74.9624C53.6572 71.6222 50.2773 71.6485 48.136 75.0282C44.7281 80.3979 36.7339 81.1299 32.543 76.4265C30.6972 74.3487 30.1978 71.7976 30.5454 69.1193L30.5414 69.1105Z" fill="#5E5E5E" fill-opacity="0.49"/>
</svg>
