<svg width="237" height="326" viewBox="0 0 237 326" fill="none" xmlns="http://www.w3.org/2000/svg">
<path d="M0 137.685V130.054C0.309019 129.952 0.355142 129.674 0.438162 129.411C2.89187 121.636 6.61394 114.462 11.5998 108.085C22.623 93.9794 35.4726 81.9376 51.7031 73.9591C52.6947 73.4731 53.0545 72.9178 52.9622 71.7932C52.727 69.0396 52.6255 66.2767 52.5102 63.5139C52.4918 63.0928 52.2104 62.5235 52.9069 62.1903C53.8662 63.7407 54.3413 65.4576 54.5581 67.2023C55.6973 76.361 56.7489 85.5288 57.8696 94.6921C57.9896 95.6547 57.4591 96.0943 56.8457 96.5849C51.8922 100.565 47.2707 104.91 42.8799 109.501C42.3449 110.061 41.7545 110.603 41.2933 111.704C45.126 109.64 48.8389 108.553 53.1744 108.081C51.7261 110.677 49.6553 111.982 47.8703 113.569C46.0254 115.212 44.2036 116.883 42.3725 118.544L42.7138 118.998C52.4733 112.565 61.647 105.295 71.6002 98.3898C67.4631 97.603 63.6349 98.2787 59.9682 97.3022C66.3976 95.414 73.1177 95.6362 79.5609 93.9238C74.672 93.7387 69.7138 94.4746 64.5112 92.8131C67.5784 91.8598 70.1981 91.0407 72.8132 90.2262C70.4841 89.6939 68.2379 89.532 65.9964 89.333C63.9901 89.1571 61.8454 89.2126 61.1812 86.4498C61.8039 85.5242 63.0999 85.8343 64.1607 85.5103C62.8785 84.358 60.8676 85.0105 59.53 83.6684C60.2726 83.0298 61.0567 82.9927 61.7808 82.8076C64.5205 82.1088 64.7511 81.3637 62.9385 79.1469C62.528 78.6425 61.7993 78.1242 62.016 77.4763C62.5049 76.0139 63.0169 74.5283 64.811 73.9961C65.8442 73.6907 66.9557 73.3667 67.9704 72.3856C66.1394 72.1912 64.5205 72.2884 62.98 71.8487C61.9468 71.5526 60.4894 71.4785 60.3233 70.2475C60.1757 69.1553 61.6009 68.91 62.3942 68.3778C62.9846 67.9798 63.6488 67.6883 64.2852 67.355C67.2694 65.8047 70.2581 64.2682 73.2284 62.6994C73.708 62.4448 74.3168 62.2412 74.5013 61.4128C72.5504 61.3064 70.7747 61.6674 68.9897 61.8617C65.9087 62.1949 62.8278 62.3291 59.816 61.4036C58.2478 60.9223 58.151 60.2836 59.2948 59.0896C60.1804 58.164 61.2965 57.4004 61.7577 55.9519C59.5485 55.7899 59.0089 54.1331 58.6076 52.5319C57.7359 49.0563 57.0025 45.5437 56.2323 42.0404C56.1677 41.7535 56.0801 41.3786 56.5136 41.1287C57.3116 41.0824 57.2193 42.3875 58.1971 42.2718C58.8935 41.7627 59.1334 40.8881 59.3778 40.0597C59.8898 38.3103 60.2911 36.5286 60.8261 34.7885C61.6378 32.1506 61.3196 29.8783 59.3548 27.7494C57.5837 25.8242 57.8512 24.6441 59.9913 23.1308C62.4819 21.3722 65.2815 20.1828 68.0304 18.9101C76.2494 15.1153 85.0126 13.1345 93.7989 11.2695C110.02 7.83095 126.37 5.09585 142.665 2.03218C146.489 1.3056 150.239 0.0329271 154.187 0.000531796C157.554 -0.0272356 159.076 1.02793 160.026 4.21655C161.211 8.18729 162.212 12.2089 163.365 16.1889C164.269 19.3174 164.952 22.5986 166.7 25.3476C168.392 28.0086 169.103 30.8825 169.707 33.8583C170.025 35.4271 170.279 37.0145 170.685 38.5649C171.224 40.615 172.004 41.2074 174.121 41.1565C176.542 41.0963 178.959 40.9066 181.381 40.7909C181.768 40.7724 182.155 40.8279 182.543 40.851C181.865 41.411 181.168 41.7026 180.458 41.9664C170.113 45.7659 159.888 49.8662 149.847 54.4247C139.603 59.0757 129.438 63.9073 120.172 70.3724C101.437 83.4416 83.3614 97.3948 65.9641 112.213C58.3585 118.692 50.4347 124.57 41.0396 128.203C37.3913 129.614 33.8215 131.225 30.1594 132.599C23.7115 135.02 17.2728 137.472 10.4928 138.838C9.72719 138.99 8.9016 139.287 8.00683 138.597C10.6819 135.061 14.2748 132.525 17.2174 129.276C16.235 128.698 15.2296 128.652 14.2887 128.42C11.7658 127.791 11.4891 127.046 13.048 124.912C13.274 124.602 13.5092 124.292 13.7721 124.01C16.1705 121.418 18.5781 118.836 20.9672 116.235C21.4054 115.754 22.0234 115.356 22.2171 114.078C19.8003 115.916 17.7479 117.447 15.7277 119.021C12.596 121.46 9.39972 123.839 6.84455 126.925C4.29398 130.017 3.33003 133.641 3.56064 137.593C3.68056 139.694 4.54305 140.559 6.62777 140.809C8.74017 141.064 10.7972 140.656 12.8404 140.171C21.6682 138.056 29.9979 134.538 38.3184 131.012C48.8758 126.537 59.3871 121.946 68.7775 115.198C77.5362 108.904 85.4369 101.592 93.2224 94.1691C108.3 79.7949 124.798 67.4939 143.606 58.4232C164.431 48.3806 185.794 39.9347 208.694 35.9964C215.483 34.8301 222.309 33.8213 229.228 34.8209C234.744 35.6215 236.893 38.1298 236.995 43.6972C237.133 51.1435 234.518 57.6781 230.266 63.6018C224.302 71.9043 215.769 76.4443 206.374 79.6329C205.539 79.9152 204.654 79.9615 203.759 79.9106C199.322 79.6514 194.973 80.2947 190.66 81.2665C190.25 81.3591 189.932 81.4794 189.853 82.081C192.035 83.8582 194.59 85.1308 197.113 86.4544C201.665 88.8378 206.171 91.3183 209.843 94.9836C213.685 98.8248 216.618 103.189 216.42 108.946C216.295 112.537 216.018 116.119 215.732 119.701C215.672 120.46 215.769 121.353 214.911 122.149C214.801 120.858 214.639 119.766 214.621 118.669C214.552 115.296 214.565 111.922 214.492 108.553C214.441 106.336 214.261 104.128 213.113 102.138C208.736 94.544 202.265 89.643 193.94 87.1255C193.174 86.8941 192.399 86.783 191.463 87.1255C191.767 87.3291 191.938 87.4448 192.113 87.5559C201.674 93.5999 207.435 102.263 209.764 113.301C210.502 116.804 210.115 120.354 210.285 123.885C210.331 124.88 210.327 125.93 211.148 126.652C213.828 129.017 216.724 130.966 220.372 131.507C222.42 131.813 224.357 131.465 226.47 130.507C223.038 136.052 217.628 135.302 213.256 133.016C211.572 132.132 210.133 130.776 208.579 129.642C208.099 129.29 207.638 128.855 206.646 129.272C207.001 136.806 205.29 144.243 204.105 151.754C211.604 146.113 210.364 138.648 208.408 131.049C209.824 131.266 210.364 131.627 210.885 133.4C212.748 139.722 213.606 145.988 209.017 151.643C208.099 152.777 208.182 153.707 208.948 154.887C210.299 156.97 211.526 159.136 212.748 161.297C215.608 166.351 218.371 171.455 219.648 177.198C219.796 177.865 220.096 178.54 219.68 179.262C219.118 178.92 219.072 178.332 218.896 177.842C215.94 169.613 211.494 162.181 206.683 154.952C206.393 154.517 206.176 153.661 205.346 154.161C204.705 154.545 204.801 155.216 205.018 155.799C205.267 156.47 205.558 157.136 205.922 157.747C207.306 160.075 208.657 162.421 210.138 164.68C216.844 174.917 220.137 186.26 220.94 198.38C221.286 203.568 220.548 208.455 217.033 212.704C215.147 214.985 213.947 217.804 212.827 220.571C211.374 224.153 210.179 227.855 208.514 231.336C206.619 235.288 205.867 239.351 205.95 243.692C206.065 249.607 206.185 255.526 205.645 261.431C205.406 264.027 204.94 266.563 204.036 269.035C202.772 264.198 202.288 259.228 200.941 254.174C199.866 255.234 199.313 256.252 198.792 257.266C197.634 259.533 196.393 261.75 194.917 263.819C192.671 266.966 190.268 269.997 188.137 273.218C185.356 277.416 182.7 281.729 182.575 287.014C182.497 290.327 182.557 293.65 182.543 296.964C182.534 299.606 183.585 301.768 185.439 303.605C187.335 305.484 189.438 307.062 191.758 308.376C192.39 308.733 193.156 308.959 193.534 309.677C189.77 310.075 186.989 307.844 183.908 306.141C183.756 307.159 184.176 307.816 184.434 308.524C186.168 313.31 188.949 317.475 191.961 321.52C192.74 322.565 194.009 323.431 193.797 325.037C193.797 325.051 194.189 325.115 194.396 325.157H194.064C194.53 324.542 193.898 324.5 193.608 324.278C191.555 322.695 189.512 321.094 187.755 319.169C176.146 306.423 173.364 285.334 181.381 270.029C183.581 265.827 186.103 261.792 188.451 257.664C188.986 256.724 189.632 255.794 189.452 254.609C188.105 254.41 187.824 254.387 185.942 255.188C179.983 257.724 174.31 260.811 169.347 265.008C162.941 270.427 157.056 276.416 151.152 282.377C145.17 288.416 139.243 294.511 132.901 300.171C132.03 300.949 131.241 301.916 129.811 302.258C130.139 298.352 131.407 294.761 131.993 290.73C131.555 291.063 131.361 291.16 131.241 291.313C125.969 298.019 119.844 303.924 113.715 309.802C111.948 311.496 111.542 312.861 112.617 315.022C113.341 316.48 113.927 318.086 113.899 319.807C112.197 317.118 111.238 314.133 110.431 311.116C107.294 299.412 102.202 288.629 95.4593 278.605C93.9096 276.305 93.5637 276.291 91.2991 277.818C87.6462 280.28 83.9333 282.645 79.3765 283.247C79.1551 283.705 79.4825 284.149 79.5978 284.617C80.2297 287.139 80.7924 289.67 81.1522 292.248C81.2767 293.141 81.332 294.053 80.6909 294.775C78.2003 297.598 76.8628 301.083 75.1886 304.373C74.8057 305.128 74.4275 305.891 73.9801 306.784C73.5097 306.039 73.6804 305.479 73.6804 304.956C73.6619 300.921 73.6573 296.881 73.6804 292.845C73.685 292.026 73.5051 291.369 72.9239 290.753C70.7747 288.486 68.51 286.301 67.2186 283.307C64.6496 284.066 62.8001 286.121 60.2403 286.787C59.9313 285.496 60.0789 284.39 60.1527 283.298C60.4894 278.221 60.8768 273.153 61.2043 268.077C61.2781 266.924 61.3334 265.707 60.494 264.754C58.6214 262.625 57.6667 260.033 56.7396 257.428C56.4629 256.655 56.0755 255.85 56.3568 254.6C57.6667 256.456 58.7921 258.043 59.9128 259.631L60.3233 259.381C59.2072 254.771 58.5799 250.032 56.5874 245.557C51.6293 253.327 51.6477 262.097 51.4725 271.27C48.0271 266.586 49.1617 261.574 48.6452 256.808C46.6711 259.848 44.4296 262.731 44.3881 266.596C44.365 268.641 44.3235 270.687 44.3189 272.732C44.3005 280.396 46.0715 287.518 50.6146 293.812C50.9006 294.206 51.4586 294.576 51.085 295.358C48.5253 294.067 46.8741 291.841 45.1445 289.763C43.4241 287.694 42.7969 284.95 41.2979 282.58C41.1319 282.849 41.0765 282.9 41.0811 282.937C41.3256 284.501 41.4962 286.088 41.8421 287.629C44.365 298.769 48.9173 308.95 56.0294 317.933C56.5598 318.604 57.5652 319.081 57.33 320.219L57.3577 320.242C57.1132 319.951 56.878 319.645 56.6197 319.368C51.8645 314.24 47.0955 309.117 43.4334 303.105C33.4663 286.732 32.6361 270.201 42.2941 253.309C46.8418 245.354 50.8037 237.079 54.452 228.661C54.6411 228.226 55.1346 227.763 54.6226 227.008C54.0553 227.772 53.4972 228.434 53.0314 229.156C50.4486 233.15 48.1517 237.319 46.2929 241.693C42.0174 251.768 34.8316 258.668 24.5647 262.343C21.1794 263.555 17.6833 264.041 14.1042 263.972C14.7684 263.675 15.4371 263.43 16.1197 263.25C22.0603 261.685 27.1983 258.705 31.5707 254.387C35.3435 250.662 39.144 246.992 40.7998 241.674C43.5394 232.854 48.3823 225.412 55.5958 219.576C56.4491 218.887 57.3623 218.178 57.925 217.086C57.1086 216.897 56.4998 217.202 55.9002 217.433C52.4456 218.766 49.1341 220.404 46.0716 222.487C40.7214 226.138 37.5482 231.026 37.788 237.759C37.8064 238.31 37.7419 238.865 37.7326 239.416C37.7096 240.578 37.1284 241.202 36.0031 241.503C34.1812 241.984 32.5439 241.739 30.9665 240.684C30.1409 240.129 29.4214 239.286 28.213 239.245L28.7941 240.508C28.7434 240.554 28.6927 240.605 28.6373 240.652C27.6595 240.105 27.0876 239.198 26.345 238.352C26.9124 238.125 27.2121 238.708 27.4335 238.513C27.8302 238.055 27.2998 237.602 27.8071 237.333C28.4528 237.37 28.9648 237.778 29.3292 238.213C30.3715 239.444 31.8382 239.916 33.208 240.573C34.2827 241.091 34.91 240.804 34.993 239.573C35.0483 238.745 35.076 237.916 35.0806 237.088C35.0991 229.128 38.5675 222.853 44.4988 217.817C47.2108 215.517 50.4209 214.004 53.4788 212.245C54.3597 211.736 55.3237 211.311 56.057 210.339C53.1421 207.881 49.8213 206.266 46.399 204.124C52.7731 204.253 61.0936 203.129 62.7724 201.907C60.6416 200.356 58.1371 199.588 55.8725 198.024C66.9557 196.034 77.0888 191.679 87.1527 185.7C86.3363 189.12 87.4432 191.54 88.9007 193.868C89.5187 194.849 90.086 195.863 90.7502 196.811C91.2622 197.543 91.1469 198.056 90.5242 198.667C89.6617 199.509 88.7162 200.338 88.2781 201.786C89.634 201.425 90.2014 199.982 91.728 200.227C90.8747 201.592 89.5372 202.055 88.4718 202.846C80.8385 208.506 74.8565 215.679 69.617 223.538C67.7813 226.291 66.4714 229.248 66.3331 232.613C65.9272 242.452 66.0932 252.286 66.8266 262.107C67.0065 264.55 68.1687 266.679 69.7 269.113C69.843 267.679 69.9352 266.619 69.4048 265.813C68.8144 264.92 68.63 263.995 68.5885 263.018C68.4086 258.881 68.2471 254.739 68.1226 250.597C67.9335 244.247 67.3339 237.893 68.0673 231.544C68.7038 225.995 71.8262 222.496 77.075 220.863C78.7031 220.358 80.3819 220.011 82.0285 219.567C84.6113 218.877 86.816 217.665 88.195 215.217C90.2659 211.542 91.9448 207.715 93.0194 203.624C93.7804 200.731 93.4345 198.066 91.7511 195.553C90.7687 194.086 89.8324 192.577 89.0437 190.999C87.5908 188.079 88.0474 186.487 90.741 184.659C92.8488 183.229 95.2102 182.28 97.4933 181.178C99.5042 180.211 101.598 179.406 103.844 177.925C103.208 177.99 103.005 177.985 102.816 178.036C97.7101 179.452 92.6873 181.077 88.0705 183.751C87.351 184.168 86.6223 184.561 85.8013 184.723C84.6759 184.945 83.8411 184.547 83.4029 183.469C82.9602 182.377 83.4952 181.692 84.4176 181.169C86.1149 180.211 87.9736 179.688 89.8185 179.142C98.1344 176.685 106.284 173.852 113.65 169.113C115.246 168.086 115.629 168.22 116.422 169.919C118.373 174.098 119.664 178.485 120.361 183.048C120.96 186.986 120.356 190.559 117.796 193.813C115.255 197.043 114.296 200.889 114.328 205.003C114.351 207.988 114.416 210.973 114.153 213.953C113.977 215.915 113.11 217.318 111.478 218.405C107.05 221.362 103.194 224.782 101.649 230.22C99.3659 238.227 95.2702 245.354 90.8471 252.323C87.3879 257.775 83.6797 263.074 80.631 268.785C80.3819 269.247 79.8976 269.692 80.2436 270.543C82.0146 267.669 83.8595 265.073 86.0319 262.708C93.6651 254.401 101.967 246.816 110.689 239.684C113.802 237.139 117.035 234.714 119.655 231.613C121.288 229.679 122.496 227.499 123.156 224.958C119.134 230.928 113.585 235.255 108.065 239.606C102.594 243.914 97.2396 248.366 92.0047 252.985C92.0047 252.541 92.1246 252.235 92.323 251.985C95.1041 248.51 97.0643 244.553 98.9969 240.578C101.192 236.061 103.305 231.498 105.528 226.99C107.446 223.098 110.975 221.154 114.775 219.599C117.22 218.6 119.747 217.78 122.132 216.651C125.148 215.221 125.872 213.328 124.885 210.126C124.198 207.9 123.091 205.85 122.03 203.79C121.168 202.12 120.425 200.403 119.872 198.593C119.567 197.598 119.784 196.913 120.614 196.302C121.952 195.321 123.396 194.521 124.844 193.725C129.027 191.425 132.795 188.583 136.065 185.08C137.117 183.955 137.182 182.955 136.079 181.789C130.282 175.685 123.884 170.294 116.902 165.601C116.007 164.999 115.255 165.045 114.374 165.721C111.348 168.035 108.065 169.946 104.721 171.747C102.705 172.834 100.625 173.644 98.2728 173.51C96.7323 173.422 95.3532 173.075 94.5645 171.585C94.6429 171.053 95.0211 170.756 95.3901 170.567C97.5855 169.428 98.9461 167.466 100.344 165.555C101.875 163.463 103.277 161.274 104.818 159.187C107.986 154.901 111.727 151.074 114.715 146.636C116.851 143.466 116.943 143.262 114.028 140.846C113.479 140.388 112.972 139.879 112.442 139.398C110.043 137.241 108.959 134.511 108.849 131.313C108.724 127.694 109.107 124.144 109.942 120.627C110.2 119.539 110.707 118.493 110.67 117.327C110.011 117.262 109.633 117.642 109.282 117.961C103.858 122.941 97.7654 127.023 91.7649 131.243C87.9045 133.955 87.9829 134.071 89.7171 138.555C90.4089 140.346 90.0584 141.374 88.3703 142.253C87.7384 142.582 87.0604 142.869 86.3686 143.017C81.3874 144.081 76.4062 143.766 71.4342 142.933C70.4656 142.771 70.0644 142.105 70.1105 141.138C70.1843 139.694 70.5164 138.296 70.8669 136.903C71.6971 133.622 72.2552 130.308 72.1076 126.902C71.9784 123.89 70.9084 121.34 68.5285 119.382C68.3071 119.465 68.0949 119.525 67.9012 119.627C55.9371 125.796 43.6409 131.216 31.1372 136.163C24.8415 138.657 18.615 141.378 11.9595 142.832C6.32337 144.058 2.54595 142.401 0.00922446 137.681L0 137.685ZM147.056 158.65C145.982 158.27 145.497 156.947 143.814 156.771C145.17 160.209 146.309 163.588 149.178 165.652C152.097 167.753 155.635 168.563 159.329 168.766C155.82 164.333 151.664 160.718 147.066 157.502L147.301 158.418L147.056 158.65ZM124.839 37.2876C122.916 36.8201 121.011 36.237 119.065 35.9131C116.74 35.529 115.486 33.8398 114.24 32.183C112.967 30.4892 112.073 28.601 113.235 26.1806C112.354 26.5878 111.611 26.6202 111.127 27.2681C111.339 27.5875 111.588 27.879 111.731 28.2122C111.902 28.6149 111.953 29.0684 112.105 29.4803C113.544 33.3261 115.679 36.399 120.061 37.2783C125.549 38.3797 129.843 41.3786 133.1 45.9186C134.064 47.2607 135.041 48.5935 136.01 49.931L136.351 49.6903C134.253 45.9926 131.601 42.6652 129.129 39.1295C133.519 39.9394 136.937 42.4801 140.11 45.4882C139.372 43.7342 137.979 42.6791 136.527 41.6933C133.782 39.8283 130.743 38.514 127.782 37.0562C125.596 35.9825 123.866 34.4368 122.658 32.294C121.629 30.466 120.504 28.6889 119.102 27.1247C118.207 26.1251 117.206 25.2365 115.209 25.3383C117.146 26.2963 119.074 26.9812 119.452 28.6287C119.858 30.4105 121.182 31.3685 121.915 32.7939C122.741 34.3905 123.866 35.7233 125.171 36.9266L124.839 37.2876ZM79.1043 267.331C79.8469 265.98 80.5434 264.629 81.3136 263.319C85.2017 256.701 89.7263 250.486 93.5821 243.84C98.8354 234.779 101.833 225.255 99.8086 214.684C98.9138 210.024 99.2321 205.456 99.9885 200.847C100.436 198.121 100.754 195.368 100.261 192.6C99.9839 191.04 99.3935 189.754 97.7239 189.245C97.2027 189.087 96.7092 188.796 96.7092 188.102C103.245 184.649 108.876 179.998 114.236 174.949C107.225 179.448 99.6011 182.9 92.5905 187.921C94.0157 188.875 95.1226 189.671 96.2895 190.379C97.8069 191.295 98.448 192.591 98.4803 194.363C98.5449 198.07 97.9914 201.638 96.4463 205.017C95.4086 207.289 94.726 209.668 94.214 212.107C93.1578 217.142 92.8488 222.293 91.9448 227.356C91.6865 228.804 91.0823 229.748 89.7494 230.368C87.7015 231.317 85.7275 232.437 83.6843 233.39C80.7094 234.779 79.4825 237.093 79.3303 240.351C78.9245 248.912 78.7815 257.479 78.7815 266.049C78.7815 266.461 78.597 266.938 79.1089 267.331H79.1043ZM120.711 263.782C125.688 252.416 129.913 240.726 135.595 229.67C127.879 236.482 119.572 242.498 112.123 249.523C104.684 256.535 96.5432 262.731 88.9883 269.645C94.3893 269.099 99.7118 268.849 105.011 269.465C106.875 269.682 107.931 269.067 108.802 267.614C113.318 260.117 118.959 253.452 124.253 246.529C124.502 246.2 124.65 245.71 125.406 245.71C124.074 251.823 121.92 257.654 120.707 263.786L120.711 263.782ZM148.846 209.737C148.744 208.784 149.238 208.289 149.561 207.733C150.737 205.711 152.434 204.105 153.869 202.291C154.454 201.55 155.667 200.666 154.685 199.597C153.638 198.454 152.794 199.755 152.033 200.296C148.315 202.939 145.424 206.433 142.412 209.811C138.086 214.671 133.321 219.136 129.373 224.343C128.492 225.509 127.653 226.671 127.205 228.425C128.967 227.513 130.212 226.402 131.435 225.292C134.41 222.58 137.329 219.807 140.299 217.086C140.825 216.605 141.323 215.906 142.499 216.193C141.323 218.942 139.252 220.918 137.569 223.251C138.473 223.459 138.847 222.82 139.252 222.362C140.825 220.571 142.67 219.086 144.45 217.526C145.133 216.929 145.949 216.633 146.692 217.17C147.467 217.725 147.66 218.65 147.287 219.562C147.061 220.108 146.733 220.641 146.346 221.094C145.018 222.644 143.639 224.148 142.292 225.68C140.904 227.258 139.515 228.855 138.764 230.85C137.265 234.811 136.66 238.999 135.83 243.215C139.58 235.954 146.014 231.021 151.124 224.87C150.396 224.926 149.741 225.125 149.081 225.305C148.177 225.555 147.176 225.93 146.494 224.995C145.737 223.963 146.747 223.325 147.232 222.575C148.306 220.9 150.059 219.729 150.908 217.813C149.819 217.443 149.519 219.072 148.398 218.507C148.463 217.966 148.343 217.267 148.629 216.841C151.36 212.782 154.173 208.793 159.634 208.224C160.229 208.164 160.676 207.923 160.473 207.132C159.915 204.98 158.292 204.258 156.382 205.382C155.151 206.109 153.956 206.91 152.739 207.659C151.53 208.4 150.368 209.237 148.864 209.746L148.846 209.737ZM65.7289 27.6337C66.7666 28.2863 67.8182 28.365 68.8006 28.6334C74.0724 30.068 79.358 30.827 84.7497 29.1424C89.0206 27.805 93.0978 26.0047 97.1658 24.1721C105.749 20.2985 114.153 16.0177 123.004 12.7597C124.3 12.283 125.499 11.6305 126.204 10.2375L126.453 12.4588L126.846 12.6902C127.459 9.29799 129.641 7.91425 132.874 7.75227C130.775 6.41018 128.746 6.62306 126.832 7.46071C124.927 8.29836 122.971 8.79355 120.937 8.93701C108.641 9.80243 96.6077 12.1719 84.699 15.2448C79.7408 16.5221 74.7781 17.7995 70.1105 19.9838C69.4002 20.317 68.5654 20.5947 68.427 21.5851C69.5662 21.9322 69.5985 22.0062 70.9361 21.3722C79.132 17.5125 87.8952 15.541 96.6723 13.676C102.594 12.4172 108.54 11.2001 114.646 11.3528C115.19 11.3667 115.827 11.1908 116.38 11.7739C115.758 12.3015 115.246 12.7967 114.669 13.2039C113.95 13.7084 113.193 14.1758 112.423 14.5969C104.818 18.7435 96.7876 21.9738 88.8869 25.4864C82.2868 28.4205 75.5898 29.7348 68.4962 27.5875C67.6429 27.3283 66.7666 27.4579 65.7197 27.6384L65.7289 27.6337ZM119.909 281.983C129.89 276.263 139.594 270.053 149.556 264.272C159.523 258.492 170.03 253.786 180.426 248.861L180.02 248.098C157.106 254.133 137.79 266.744 119.909 281.988V281.983ZM137.569 193.743C135.54 195.229 134.363 196.913 132.883 198.283C132.099 199.005 132.085 199.676 132.486 200.62C133.57 203.152 134.636 205.692 135.374 208.363C135.627 209.288 135.24 210.38 136.093 211.204C136.305 211.126 136.54 211.093 136.702 210.968C141.088 207.516 145.271 203.823 148.163 198.973C150.414 195.206 149.021 191.522 147.351 187.949C147.301 187.843 147.079 187.815 146.927 187.745C146.037 188.254 145.659 189.138 145.225 189.953C143.929 192.396 142.919 194.96 142.135 197.612C141.231 200.685 140.175 203.707 138.713 206.562C138.279 207.414 137.952 208.4 137.043 208.788C136.665 208.705 136.582 208.492 136.573 208.27C136.282 203.522 136.665 198.815 137.569 193.748V193.743ZM157.683 181.484C157.697 187.75 159.551 191.827 164.26 196.478C170.182 202.328 177.253 206.669 183.871 211.598C184.051 211.732 184.282 211.736 184.766 211.237C176.459 202.453 167.226 194.437 160.538 184.177C159.855 183.131 158.965 182.22 157.678 181.484H157.683ZM158.153 158.65C159.067 161.056 160.547 163.018 162.54 164.513C164.375 165.888 165.893 167.535 167.276 169.331C172.553 176.171 176.902 183.603 181.039 191.165C183.23 195.169 185.37 199.195 187.529 203.212L187.958 202.98C180.573 187.38 172.76 172.01 163.291 157.534C163.997 159.765 165.228 161.774 165.745 164.393C162.669 162.773 160.902 160.094 158.153 158.65ZM154.021 170.673C155.358 173.061 173.346 188.763 175.159 189.074C173.729 185.88 171.782 183.062 170.117 180.091C166.575 173.764 160.851 171.358 154.016 170.678L154.021 170.673ZM127.63 216.276C128.192 214.994 128.344 213.962 128.294 212.912C128.049 207.789 124.908 203.795 122.842 199.181C128.118 196.909 132.634 193.66 136.563 189.559C143.03 182.807 146.747 177.994 146.724 176.185C145.511 176.273 144.985 177.226 144.386 178.027C138.874 185.413 132.242 191.536 124.244 196.131C122.967 196.867 121.698 197.626 120.425 198.38C126.776 207.761 126.195 206.683 127.634 216.276H127.63ZM206.462 119.243C206.051 110.246 201.07 98.8063 197.104 97.6123C198.068 104.573 201.084 114.916 206.462 119.243ZM128.174 51.2685C125.743 50.5696 123.285 50.4493 120.817 50.4493C114.863 50.4493 108.932 50.0883 103.051 49.0933C102.179 48.9453 101.22 48.9221 100.394 48.0012C103.397 46.2426 106.524 45.4419 109.748 45.1272C113.073 44.7986 116.002 46.2611 118.871 47.705C119.148 47.2376 118.954 46.9784 118.631 46.8257C115.559 45.3725 112.617 43.7157 108.918 44.3636C104.854 45.0763 101.169 46.5943 97.2765 48.6815C107.668 51.3471 117.912 51.5461 128.169 51.2685H128.174ZM202.352 159.728C209.086 171.168 216.106 182.4 218.514 195.747C218.2 189.634 216.825 183.705 214.538 178.119C211.812 171.46 207.523 165.647 203.302 159.848C203.104 159.575 202.795 159.427 202.352 159.733V159.728ZM150.691 5.60955C143.477 9.95978 136.273 12.843 127.985 11.126C128.151 12.1071 128.783 12.246 129.341 12.4172C130.452 12.7597 131.601 12.8522 132.763 12.8754C136.333 12.9494 139.548 14.1295 142.522 16.0547C142.79 16.226 142.91 16.8368 143.528 16.2769C142.338 14.4211 140.046 14.0647 138.284 12.6532C142.126 12.5283 145.313 11.2278 148.288 9.35353C149.45 8.62232 150.483 7.7245 150.691 5.60492V5.60955ZM70.2719 252.258C70.4841 248.033 70.8069 241.966 71.0837 235.894C71.282 231.539 73.0577 228.327 77.1718 226.476C79.4733 225.44 81.6318 224.074 83.8457 222.839C84.3161 222.575 84.9065 222.394 85.2524 221.418C79.9161 223.769 74.8057 225.787 70.8761 229.887C70.3088 230.479 70.2673 231.127 70.2673 231.859C70.2765 239.263 70.2719 246.668 70.2719 252.258ZM200.212 148.931C201.624 141.772 197.948 135.89 195.618 129.665C196.421 136.269 197.343 142.836 200.212 148.931ZM173.245 214.06C174.591 218.239 175.915 222.334 177.308 226.652C178.964 225.255 180.144 223.875 181.099 221.635C179.789 222.524 179.3 222.191 178.871 221.265C177.806 218.961 176.395 216.859 174.803 214.888C174.458 214.458 174.213 213.754 173.249 214.06H173.245ZM139.128 246.996C135.821 249.014 130.858 257.997 130.738 262.139C133.418 257.187 136.776 252.605 139.128 246.996ZM152.522 48.5565C152.932 47.5569 152.734 46.9645 152.646 46.386C152.176 43.2714 151.692 40.1615 151.207 37.0469C150.64 33.3816 150.986 29.9014 153.094 26.7082C153.786 25.6576 154.261 24.4544 154.786 23.302C155.022 22.7883 155.321 22.2191 154.879 21.6499C154.164 21.7887 154.357 22.3441 154.238 22.7235C153.638 24.6441 152.863 26.6064 151.406 27.8883C150.534 28.6565 150.405 29.2674 150.442 30.156C150.548 32.8633 150.589 35.5752 150.834 38.2687C151.133 41.6147 151.419 44.9745 152.526 48.5611L152.522 48.5565ZM110.38 229.1C110.408 230.044 110.38 231.192 111.883 231.215C113.198 231.238 115.329 228.906 115.356 227.457C115.384 226.101 114.36 226.037 113.419 226.018C111.275 225.976 110.417 226.842 110.38 229.096V229.1ZM203.408 128.249C204.382 127.152 204.359 126.264 203.777 125.32C202.325 122.959 200.42 120.983 198.533 118.984C198.335 118.776 198.072 118.692 197.768 118.984C199.58 122.043 200.992 125.37 203.408 128.244V128.249ZM139.898 20.9881C143.514 24.8801 144.091 29.9523 147.047 33.6593C145.327 29.5081 143.616 25.3568 141.213 21.5388C140.834 20.9418 140.299 21.0482 139.769 21.0205C139.054 20.9834 139.017 21.6036 138.916 22.0386C138.371 24.4081 138.15 26.81 138.298 29.4247C138.787 26.6711 138.883 24.0286 139.898 20.9927V20.9881ZM216.941 198.903C216.669 193.262 215.843 187.741 212.859 182.775C214.925 187.972 215.525 193.526 216.941 198.903ZM151.922 119.03C154.256 114.527 156.405 109.941 157.918 105.086C155.451 109.529 153.218 114.078 151.922 119.03ZM135.037 52.2403C133.994 51.2222 122.662 46.1963 121.984 46.2935C126.025 48.9962 130.346 51.0463 135.037 52.2403ZM100.048 34.7283L100.367 35.0986C102.405 33.5991 104.416 32.058 106.483 30.6049C108.184 29.4109 108.41 29.5312 109.098 31.4703C109.351 32.1784 109.421 33.0623 110.454 33.414C110.62 31.4657 108.581 30.1004 109.554 28.115C106.146 30.156 102.908 32.183 100.048 34.7283ZM168.185 41.9849C164.278 43.0632 160.713 44.8958 157.291 47.0571C161.101 45.7705 164.763 44.16 168.185 41.9849ZM189.959 103.087C189.821 100.935 186.938 94.9374 185.568 93.9377C186.911 97.0847 188.193 100.079 189.959 103.087ZM197.002 190.823C197.772 193.308 198.395 195.863 199.912 198.033C199.719 195.317 198.437 193.04 197.002 190.823ZM145.959 35.6354C145.115 38.352 144.672 41.1148 144.884 43.961C145.71 41.2444 146.032 38.4677 145.959 35.6354ZM192.436 145.761C193.529 148.357 194.802 150.856 196.569 153.073C195.388 150.523 194.244 147.955 192.436 145.761ZM134.382 31.4194C135.221 33.7102 135.576 36.2602 137.606 37.991C137.269 38.5186 136.909 38.6759 136.711 38.4399C137.255 35.4179 135.35 33.5621 134.382 31.4194ZM118.059 31.6508C117.1 30.2763 115.915 29.0823 115.14 27.569C115.287 29.2628 116.224 30.5493 118.059 31.6508ZM184.844 192.568C184.84 190.841 183.142 187.907 181.892 187.19C182.926 189.074 183.885 190.818 184.844 192.568ZM133.376 28.3742C133.058 26.8239 132.366 25.4818 131.389 24.7089C131.167 26.1112 132.495 27.1339 133.376 28.3742ZM119.83 40.2031C119.909 41.448 120.218 42.6096 121.255 43.8777C121.094 42.2764 120.642 41.1796 119.83 40.2031ZM129.917 20.7613C129.931 19.9005 129.664 19.1739 128.746 18.4936C128.856 19.5812 129.193 20.2615 129.917 20.7613ZM128.515 46.4416C127.653 45.6363 126.988 45.2198 125.914 45.2152C126.569 46.0759 127.279 46.4045 128.515 46.4416ZM128.335 16.8646C128.303 15.9853 128.261 15.0968 127.302 14.3748C127.302 15.4855 127.602 16.2537 128.335 16.8646ZM110.398 27.768L110.338 27.6661L110.5 27.7078L110.398 27.768ZM60.3141 259.853L60.268 259.931H60.3464L60.3141 259.853Z" fill="#030303"/>
<path d="M78.7977 267.577C78.2866 267.184 78.4708 266.703 78.4708 266.296C78.4708 257.733 78.6089 249.18 79.0187 240.621C79.1752 237.366 80.3953 235.054 83.3649 233.667C85.4091 232.715 87.375 231.596 89.4192 230.648C90.7497 230.029 91.3483 229.085 91.6107 227.638C92.5131 222.58 92.8216 217.438 93.8759 212.403C94.3869 209.967 95.0683 207.595 96.1042 205.32C97.6466 201.945 98.1991 198.375 98.1346 194.676C98.1024 192.905 97.4624 191.611 95.9477 190.695C94.7829 189.988 93.6779 189.193 92.2553 188.24C99.2534 183.223 106.864 179.774 113.862 175.28C108.512 180.324 102.891 184.976 96.3667 188.42C96.3667 189.114 96.8593 189.405 97.3795 189.562C99.0462 190.071 99.6309 191.356 99.9118 192.915C100.404 195.684 100.091 198.431 99.6401 201.154C98.8805 205.759 98.5674 210.318 99.4606 214.979C101.482 225.534 98.4891 235.055 93.2451 244.108C89.4008 250.747 84.8842 256.957 80.9984 263.568C80.2295 264.877 79.5343 266.227 78.7931 267.577H78.7977Z" fill="#FCFCFC"/>
<path d="M120.702 263.438C121.927 257.333 124.114 251.528 125.465 245.442C124.698 245.442 124.549 245.93 124.296 246.257C118.935 253.15 113.214 259.784 108.638 267.248C107.75 268.695 106.685 269.308 104.796 269.091C99.4258 268.478 94.0319 268.727 88.5586 269.271C96.2147 262.392 104.464 256.218 112.004 249.238C119.552 242.244 127.975 236.255 135.79 229.473C130.031 240.48 125.75 252.118 120.707 263.433L120.702 263.438ZM100.669 263.12C101.394 263.788 101.739 263.797 102.062 263.733C103.534 263.438 104.679 262.544 105.792 261.636C110.419 257.872 113.995 253.154 117.828 248.667C118.005 248.455 118.108 248.188 117.627 247.699C111.901 252.726 105.862 257.421 100.669 263.12Z" fill="#FCFCFC"/>
<path d="M148.739 209.584C150.223 209.076 151.371 208.239 152.564 207.499C153.77 206.75 154.945 205.95 156.161 205.224C158.05 204.096 159.653 204.818 160.2 206.972C160.4 207.763 159.958 208.003 159.371 208.063C153.98 208.632 151.207 212.622 148.506 216.672C148.224 217.098 148.342 217.796 148.279 218.337C149.39 218.901 149.686 217.273 150.756 217.643C149.918 219.557 148.188 220.727 147.127 222.401C146.653 223.15 145.656 223.788 146.398 224.819C147.072 225.753 148.06 225.378 148.953 225.128C149.604 224.948 150.25 224.749 150.97 224.694C145.929 230.834 139.572 235.767 135.87 243.021C136.695 238.809 137.287 234.62 138.766 230.667C139.513 228.675 140.879 227.08 142.25 225.503C143.58 223.973 144.941 222.47 146.252 220.921C146.635 220.473 146.958 219.941 147.181 219.391C147.55 218.485 147.359 217.56 146.594 217C145.856 216.464 145.05 216.76 144.381 217.356C142.623 218.919 140.802 220.399 139.249 222.188C138.853 222.646 138.48 223.284 137.587 223.076C139.249 220.745 141.294 218.771 142.455 216.025C141.294 215.743 140.802 216.436 140.283 216.917C137.35 219.631 134.473 222.405 131.531 225.115C130.324 226.224 129.099 227.334 127.355 228.245C127.797 226.497 128.621 225.332 129.496 224.167C133.393 218.965 138.093 214.504 142.368 209.649C145.342 206.274 148.197 202.783 151.867 200.143C152.623 199.602 153.456 198.303 154.485 199.445C155.455 200.513 154.257 201.396 153.679 202.136C152.263 203.948 150.587 205.553 149.426 207.573C149.107 208.128 148.625 208.623 148.72 209.575L148.739 209.584Z" fill="#FCFCFC"/>
<path d="M65.7871 27.976C66.8259 27.7924 67.6954 27.6607 68.542 27.9242C75.5802 30.1077 82.2249 28.7712 88.7735 25.7878C96.6126 22.2161 104.58 18.9362 112.126 14.7151C112.89 14.2869 113.641 13.8163 114.355 13.2987C114.927 12.8846 115.435 12.3811 116.052 11.8446C115.503 11.2517 114.872 11.4305 114.332 11.4164C108.273 11.2611 102.369 12.4987 96.4982 13.7787C87.785 15.6751 79.0948 17.6798 70.9628 21.6044C69.6357 22.2443 69.6037 22.1738 68.4734 21.8208C68.6106 20.8138 69.4389 20.5315 70.1437 20.1926C74.7748 17.9715 79.6989 16.6727 84.6183 15.3739C96.4341 12.2493 108.374 9.83997 120.574 8.95999C122.587 8.81411 124.532 8.30589 126.422 7.45885C128.317 6.60711 130.335 6.38594 132.417 7.75532C129.209 7.92002 127.045 9.33175 126.436 12.7764L126.047 12.5411L125.8 10.2823C125.1 11.6987 123.91 12.3623 122.624 12.8469C113.838 16.1551 105.504 20.5126 96.9878 24.4514C92.9516 26.3148 88.9062 28.1454 84.6686 29.5053C79.319 31.2182 74.0747 30.4465 68.844 28.9877C67.8739 28.7148 66.8305 28.6348 65.7963 27.9713L65.7871 27.976Z" fill="#FCFCFC"/>
<path d="M119.765 281.972C137.703 266.741 157.086 254.132 180.083 248.101L180.491 248.864C170.059 253.79 159.516 258.489 149.514 264.266C139.518 270.043 129.78 276.25 119.765 281.967V281.972Z" fill="#FCFCFC"/>
<path d="M137.684 193.832C136.793 198.77 136.415 203.362 136.702 207.985C136.715 208.201 136.797 208.409 137.166 208.49C138.062 208.111 138.385 207.15 138.812 206.32C140.254 203.538 141.295 200.592 142.187 197.598C142.96 195.013 143.952 192.515 145.234 190.133C145.662 189.339 146.035 188.478 146.912 187.982C147.058 188.049 147.281 188.076 147.331 188.18C148.973 191.662 150.346 195.252 148.131 198.924C145.275 203.65 141.154 207.245 136.829 210.614C136.67 210.736 136.438 210.768 136.229 210.844C135.392 210.046 135.774 208.977 135.519 208.075C134.792 205.473 133.741 202.996 132.672 200.529C132.276 199.614 132.29 198.96 133.063 198.252C134.523 196.917 135.688 195.27 137.684 193.827V193.832Z" fill="#FCFCFC"/>
<path d="M157.719 181.207C158.996 181.95 159.888 182.871 160.568 183.927C167.231 194.287 176.432 202.38 184.708 211.249C184.226 211.749 183.996 211.749 183.817 211.614C177.217 206.637 170.177 202.254 164.277 196.348C159.585 191.651 157.737 187.535 157.723 181.207H157.719Z" fill="#FCFCFC"/>
<path d="M157.719 158.614C160.519 160.055 162.319 162.742 165.453 164.364C164.927 161.742 163.672 159.731 162.953 157.498C172.6 171.989 180.559 187.375 188.082 202.992L187.645 203.223C185.441 199.202 183.261 195.171 181.034 191.164C176.819 183.594 172.388 176.154 167.013 169.307C165.603 167.509 164.057 165.86 162.187 164.484C160.157 162.992 158.649 161.028 157.719 158.614Z" fill="#FCFCFC"/>
<path d="M154.345 171.051C161.157 171.708 166.865 174.038 170.403 180.148C172.063 183.023 174.004 185.743 175.43 188.828C173.622 188.529 155.679 173.354 154.349 171.046L154.345 171.051Z" fill="#FCFCFC"/>
<path d="M127.775 215.925C126.345 206.401 126.922 207.467 120.608 198.16C121.879 197.411 123.135 196.658 124.405 195.927C132.356 191.365 138.95 185.287 144.429 177.955C145.026 177.156 145.548 176.21 146.754 176.127C146.777 177.923 143.081 182.701 136.653 189.404C132.746 193.479 128.257 196.704 123.011 198.955C125.065 203.535 128.188 207.499 128.431 212.585C128.481 213.628 128.33 214.652 127.771 215.925H127.775Z" fill="#FCFCFC"/>
<path d="M125.226 36.9781C123.935 35.777 122.822 34.4466 122.005 32.8528C121.279 31.4346 119.969 30.4738 119.568 28.6952C119.194 27.0507 117.286 26.367 115.37 25.4108C117.35 25.3091 118.336 26.2007 119.221 27.1939C120.608 28.7599 121.722 30.5292 122.739 32.3539C123.93 34.4928 125.646 36.0357 127.809 37.1074C130.739 38.558 133.746 39.8745 136.461 41.7362C137.894 42.7201 139.273 43.7734 140.007 45.5242C136.868 42.5215 133.486 39.9854 129.142 39.177C131.588 42.7063 134.212 46.0277 136.288 49.7187L135.95 49.959C134.992 48.6239 134.025 47.2935 133.071 45.9538C129.849 41.4221 125.601 38.4286 120.17 37.3292C115.835 36.4514 113.722 33.3841 112.298 29.5452C112.148 29.1341 112.098 28.6814 111.929 28.2795C111.787 27.9469 111.541 27.6558 111.331 27.3371C111.81 26.6904 112.545 26.658 113.417 26.2515C112.267 28.6675 113.152 30.5523 114.411 32.243C115.643 33.8968 116.885 35.583 119.185 35.9664C121.11 36.2898 122.995 36.8718 124.898 37.3384C125.117 37.4955 125.391 37.6664 125.569 37.3892C125.683 37.209 125.441 37.0427 125.231 36.9781H125.226Z" fill="#FCFCFC"/>
<path d="M206.638 119.394C201.306 114.99 198.316 104.462 197.36 97.3778C201.293 98.5931 206.231 110.237 206.638 119.394Z" fill="#FCFCFC"/>
<path d="M146.981 158.28L146.738 157.374C151.488 160.553 155.78 164.125 159.405 168.506C155.589 168.305 151.935 167.505 148.92 165.428C145.957 163.389 144.78 160.05 143.38 156.652C145.119 156.826 145.619 158.134 146.729 158.509C146.795 158.646 146.895 158.788 147.048 158.655C147.1 158.609 147.005 158.408 146.976 158.28H146.981Z" fill="#FCFCFC"/>
<path d="M128.194 51.5528C117.834 51.8491 107.487 51.6368 96.9922 48.7927C100.924 46.5659 104.646 44.9463 108.75 44.1859C112.486 43.4947 115.458 45.2623 118.56 46.8127C118.887 46.9757 119.082 47.2472 118.803 47.7509C115.905 46.2054 112.947 44.6501 109.588 45.0006C106.332 45.3413 103.174 46.1906 100.141 48.0669C100.97 49.0495 101.939 49.0741 102.824 49.2322C108.764 50.2937 114.75 50.6789 120.768 50.6789C123.261 50.6789 125.739 50.8072 128.199 51.5528H128.194Z" fill="#FCFCFC"/>
<path d="M202.421 159.362C202.855 159.055 203.162 159.204 203.363 159.479C207.552 165.314 211.801 171.163 214.504 177.864C216.772 183.485 218.135 189.45 218.446 195.602C216.059 182.176 209.098 170.874 202.421 159.358V159.362Z" fill="#FCFCFC"/>
<path d="M150.971 5.92773C150.763 7.8991 149.727 8.74028 148.561 9.42184C145.578 11.1646 142.386 12.3811 138.528 12.4975C140.3 13.8132 142.594 14.1454 143.788 15.8752C143.168 16.3928 143.048 15.8277 142.779 15.6681C139.796 13.8736 136.567 12.7736 132.991 12.7046C131.826 12.683 130.674 12.5967 129.559 12.2775C128.999 12.1179 128.37 11.9885 128.199 11.074C136.512 12.6744 143.737 9.98694 150.971 5.93205V5.92773Z" fill="#FCFCFC"/>
<path d="M70.0086 252.336C70.0086 246.656 70.0086 239.134 70.0039 231.612C70.0039 230.869 70.0413 230.211 70.6207 229.609C74.6065 225.444 79.7838 223.394 85.1854 221.005C84.8303 221.997 84.2368 222.181 83.7602 222.449C81.522 223.709 79.3352 225.096 76.9989 226.144C72.8309 228.025 71.0272 231.292 70.831 235.712C70.5553 241.875 70.2235 248.039 70.0086 252.336Z" fill="#FCFCFC"/>
<path d="M200.41 149.03C197.452 142.874 196.5 136.231 195.673 129.555C198.07 135.842 201.866 141.788 200.41 149.03Z" fill="#FCFCFC"/>
<path d="M172.905 214.306C173.94 214 174.203 214.705 174.574 215.137C176.288 217.114 177.798 219.225 178.942 221.532C179.403 222.46 179.928 222.794 181.335 221.903C180.309 224.149 179.042 225.532 177.264 226.933C175.768 222.603 174.351 218.497 172.9 214.306H172.905Z" fill="#FCFCFC"/>
<path d="M139.164 247.255C136.799 252.901 133.423 257.508 130.729 262.497C130.85 258.328 135.844 249.286 139.164 247.255Z" fill="#FCFCFC"/>
<path d="M152.393 48.2657C151.194 44.7672 150.884 41.4899 150.56 38.2262C150.295 35.599 150.25 32.9492 150.135 30.313C150.095 29.4462 150.235 28.8504 151.179 28.101C152.758 26.8506 153.597 24.9366 154.246 23.0633C154.376 22.6931 154.167 22.1514 154.941 22.016C155.425 22.5712 155.096 23.1265 154.841 23.6275C154.271 24.7516 153.757 25.9252 153.007 26.9499C150.729 30.0692 150.355 33.4593 150.964 37.0345C151.484 40.0725 152.013 43.106 152.523 46.144C152.618 46.7083 152.833 47.2861 152.388 48.2611L152.393 48.2657Z" fill="#FCFCFC"/>
<path d="M110.487 229.095C110.525 226.888 111.397 226.047 113.578 226.087C114.534 226.105 115.575 226.169 115.547 227.494C115.519 228.909 113.353 231.184 112.016 231.166C110.483 231.144 110.515 230.022 110.487 229.099V229.095Z" fill="#FCFCFC"/>
<path d="M203.293 127.857C200.751 125.026 199.272 121.748 197.36 118.735C197.681 118.443 197.957 118.53 198.166 118.735C200.15 120.7 202.153 122.651 203.681 124.976C204.292 125.901 204.316 126.781 203.293 127.861V127.857Z" fill="#FCFCFC"/>
<path d="M139.897 21.1738C138.924 24.217 138.831 26.8705 138.362 29.626C138.221 27.005 138.433 24.5974 138.955 22.2222C139.052 21.7862 139.088 21.1646 139.773 21.2017C140.282 21.2295 140.8 21.1228 141.158 21.7212C143.462 25.5484 145.104 29.7095 146.753 33.8706C143.918 30.1548 143.365 25.0705 139.897 21.1692V21.1738Z" fill="#FCFCFC"/>
<path d="M216.758 198.99C215.29 193.63 214.676 188.085 212.541 182.901C215.624 187.855 216.482 193.362 216.758 198.99Z" fill="#FCFCFC"/>
<path d="M151.815 119.394C153.092 114.282 155.29 109.585 157.719 104.999C156.23 110.015 154.113 114.745 151.815 119.394Z" fill="#FCFCFC"/>
<path d="M134.946 52.4994C130.4 51.3096 126.211 49.2666 122.295 46.5734C122.952 46.4766 133.936 51.4848 134.946 52.4994Z" fill="#FCFCFC"/>
<path d="M100.366 34.3581C103.15 31.8891 106.292 29.9228 109.604 27.9431C108.658 29.869 110.639 31.1932 110.478 33.0832C109.474 32.742 109.407 31.8891 109.16 31.1977C108.492 29.3168 108.273 29.2001 106.619 30.3583C104.606 31.7679 102.652 33.2583 100.675 34.7172L100.366 34.3581Z" fill="#FCFCFC"/>
<path d="M167.84 42.3384C164.396 44.5171 160.71 46.1349 156.876 47.419C160.316 45.2541 163.909 43.4185 167.84 42.3384Z" fill="#FCFCFC"/>
<path d="M189.768 103.305C188.071 100.243 186.84 97.1945 185.551 93.9907C186.866 95.0084 189.631 101.114 189.768 103.305Z" fill="#FCFCFC"/>
<path d="M196.516 190.521C198.178 192.864 199.665 195.266 199.889 198.142C198.13 195.848 197.408 193.148 196.516 190.521Z" fill="#FCFCFC"/>
<path d="M145.903 35.5643C145.958 38.4402 145.719 41.269 145.106 44.032C144.949 41.1372 145.277 38.3273 145.903 35.5643Z" fill="#FCFCFC"/>
<path d="M192.299 145.643C194.144 147.93 195.311 150.607 196.516 153.264C194.713 150.954 193.419 148.354 192.299 145.643Z" fill="#FCFCFC"/>
<path d="M134.104 31.3301C135.117 33.6212 137.106 35.6054 136.541 38.8367C136.748 39.0891 137.125 38.9208 137.477 38.3567C135.358 36.506 134.982 33.7795 134.104 31.3301Z" fill="#FCFCFC"/>
<path d="M118.079 31.3302C115.958 30.4162 114.87 29.3525 114.705 27.9431C115.6 29.1989 116.97 30.1858 118.079 31.3302Z" fill="#FCFCFC"/>
<path d="M184.709 192.215C183.887 190.567 183.064 188.914 182.179 187.135C183.25 187.812 184.705 190.584 184.709 192.215Z" fill="#FCFCFC"/>
<path d="M133.26 28.7898C132.522 27.3572 131.408 26.1704 131.594 24.556C132.413 25.4488 132.989 26.999 133.26 28.7898Z" fill="#FCFCFC"/>
<path d="M119.765 39.7975C120.725 40.9226 121.26 42.1863 121.451 44.0313C120.223 42.5756 119.857 41.2319 119.765 39.7975Z" fill="#FCFCFC"/>
<path d="M129.885 21.1692C129.364 20.6041 129.122 19.842 129.042 18.6289C129.702 19.391 129.895 20.2049 129.885 21.1692Z" fill="#FCFCFC"/>
<path d="M128.199 46.5722C126.997 46.5275 126.306 46.0673 125.669 44.8787C126.714 44.8787 127.36 45.4602 128.199 46.5722Z" fill="#FCFCFC"/>
<path d="M128.199 16.9354C127.596 16.3122 127.352 15.5284 127.356 14.3951C128.139 15.127 128.173 16.0383 128.199 16.9354Z" fill="#FCFCFC"/>
<path d="M86.0508 158.34C86.7435 154.937 84.4407 153.854 82.1791 152.706C81.4176 152.319 80.6286 151.908 80.124 151.088C80.2571 150.958 80.3626 150.769 80.4772 150.765C83.8948 150.58 87.2481 151.028 90.5371 151.941C91.1518 152.111 91.9179 152.342 91.9317 153.139C91.9454 153.863 91.2115 154.043 90.6656 154.26C88.7297 155.03 87.615 156.699 86.0508 158.345V158.34Z" fill="#F60404"/>
<path d="M83.499 146.595C81.8084 147.575 80.3828 147.571 79.1857 146.662C78.7197 146.309 78.2399 145.902 78.5232 145.291C78.7791 144.735 79.4142 144.764 79.9396 144.834C81.2967 145.017 82.512 145.486 83.499 146.595Z" fill="#030303"/>
<path d="M86.7624 205.763C87.0705 207.256 86.6883 208.375 86.1266 209.43C85.8146 210.019 85.3036 210.165 84.8004 209.795C84.2973 209.421 84.2193 208.658 84.5118 208.238C85.1242 207.361 85.7053 206.366 86.7585 205.768L86.7624 205.763Z" fill="#030303"/>
<path d="M79.2812 215.024C79.8779 213.723 80.675 212.937 81.854 212.6C82.6129 212.384 83.2286 212.745 83.453 213.461C83.6725 214.168 83.052 214.434 82.5174 214.612C81.5342 214.94 80.5223 215.193 79.2812 215.024Z" fill="#030303"/>
<path d="M101.21 263.551C106.272 257.845 112.158 253.137 117.74 248.101C118.204 248.59 118.109 248.858 117.936 249.071C114.204 253.566 110.719 258.298 106.203 262.064C105.119 262.974 104.003 263.869 102.568 264.165C102.253 264.229 101.916 264.215 101.21 263.551Z" fill="#030303"/>
<path d="M147.383 158.345C147.455 158.598 147.685 159.006 147.564 159.087C147.177 159.349 146.924 159.069 146.755 158.797L147.395 158.345H147.383Z" fill="#030303"/>
</svg>
